<svg width="758" height="364" viewBox="0 0 758 364" fill="none" xmlns="http://www.w3.org/2000/svg">
<rect width="758" height="364" fill="#0F0932"/>
<path d="M41.8182 78.3125C41.6193 77.6212 41.34 77.0104 40.9801 76.4801C40.6203 75.9403 40.1799 75.4858 39.6591 75.1165C39.1477 74.7377 38.5606 74.4489 37.8977 74.25C37.2443 74.0511 36.5199 73.9517 35.7244 73.9517C34.2377 73.9517 32.9309 74.321 31.804 75.0597C30.6866 75.7983 29.8153 76.8731 29.1903 78.2841C28.5653 79.6856 28.2528 81.3996 28.2528 83.4261C28.2528 85.4527 28.5606 87.1761 29.1761 88.5966C29.7917 90.017 30.6629 91.1013 31.7898 91.8494C32.9167 92.5881 34.2472 92.9574 35.7812 92.9574C37.1733 92.9574 38.3617 92.7112 39.3466 92.2188C40.3409 91.7169 41.0985 91.0114 41.6193 90.1023C42.1496 89.1932 42.4148 88.1184 42.4148 86.8778L43.6648 87.0625H36.1648V82.4318H48.3381V86.0966C48.3381 88.6534 47.7983 90.8504 46.7188 92.6875C45.6392 94.5152 44.1525 95.9261 42.2585 96.9205C40.3646 97.9053 38.196 98.3977 35.7528 98.3977C33.0256 98.3977 30.6297 97.7964 28.5653 96.5938C26.5009 95.3816 24.8911 93.6629 23.7358 91.4375C22.59 89.2027 22.017 86.5511 22.017 83.483C22.017 81.125 22.358 79.0227 23.0398 77.1761C23.7311 75.3201 24.697 73.7481 25.9375 72.4602C27.178 71.1723 28.6222 70.1922 30.2699 69.5199C31.9176 68.8475 33.7027 68.5114 35.625 68.5114C37.2727 68.5114 38.8068 68.7528 40.2273 69.2358C41.6477 69.7093 42.9072 70.3816 44.0057 71.2528C45.1136 72.1241 46.018 73.161 46.7188 74.3636C47.4195 75.5568 47.8693 76.8731 48.0682 78.3125H41.8182ZM52.9581 98V68.9091H72.5604V73.9801H59.1087V80.9119H71.5518V85.983H59.1087V92.929H72.6172V98H52.9581ZM93.2315 77.2756C93.1179 76.1297 92.6302 75.2396 91.7685 74.6051C90.9067 73.9706 89.7372 73.6534 88.2599 73.6534C87.2562 73.6534 86.4086 73.7955 85.7173 74.0795C85.026 74.3542 84.4957 74.7377 84.1264 75.2301C83.7666 75.7225 83.5866 76.2812 83.5866 76.9062C83.5677 77.4271 83.6766 77.8816 83.9134 78.2699C84.1596 78.6581 84.4957 78.9943 84.9219 79.2784C85.348 79.553 85.8404 79.7945 86.3991 80.0028C86.9579 80.2017 87.5545 80.3722 88.1889 80.5142L90.8026 81.1392C92.0715 81.4233 93.2363 81.8021 94.2969 82.2756C95.3575 82.7491 96.276 83.3314 97.0526 84.0227C97.8291 84.714 98.4304 85.5284 98.8565 86.4659C99.2921 87.4034 99.5147 88.4782 99.5241 89.6903C99.5147 91.4706 99.0601 93.0142 98.1605 94.321C97.2704 95.6184 95.9825 96.6269 94.2969 97.3466C92.6207 98.0568 90.599 98.4119 88.2315 98.4119C85.883 98.4119 83.8376 98.0521 82.0952 97.3324C80.3622 96.6127 79.008 95.5473 78.0327 94.1364C77.0668 92.7159 76.5601 90.9593 76.5128 88.8665H82.4645C82.5308 89.8419 82.8101 90.6562 83.3026 91.3097C83.8045 91.9536 84.4721 92.4413 85.3054 92.7727C86.1482 93.0947 87.0999 93.2557 88.1605 93.2557C89.2022 93.2557 90.1065 93.1042 90.8736 92.8011C91.6501 92.4981 92.2514 92.0767 92.6776 91.5369C93.1037 90.9972 93.3168 90.3769 93.3168 89.6761C93.3168 89.0227 93.1226 88.4735 92.7344 88.0284C92.3556 87.5833 91.7969 87.2045 91.0582 86.892C90.3291 86.5795 89.4342 86.2955 88.3736 86.0398L85.206 85.2443C82.7533 84.6477 80.8168 83.715 79.3963 82.446C77.9759 81.1771 77.2704 79.4678 77.2798 77.3182C77.2704 75.5568 77.7391 74.018 78.6861 72.7017C79.6425 71.3854 80.9541 70.358 82.6207 69.6193C84.2874 68.8807 86.1813 68.5114 88.3026 68.5114C90.4616 68.5114 92.3461 68.8807 93.956 69.6193C95.5753 70.358 96.8348 71.3854 97.7344 72.7017C98.634 74.018 99.098 75.5426 99.1264 77.2756H93.2315ZM102.553 73.9801V68.9091H126.445V73.9801H117.539V98H111.46V73.9801H102.553ZM136.531 68.9091V98H130.38V68.9091H136.531ZM168.324 83.4545C168.324 86.6269 167.723 89.3258 166.52 91.5511C165.327 93.7765 163.698 95.4763 161.634 96.6506C159.579 97.8153 157.268 98.3977 154.702 98.3977C152.116 98.3977 149.796 97.8106 147.741 96.6364C145.687 95.4621 144.063 93.7623 142.869 91.5369C141.676 89.3116 141.08 86.6174 141.08 83.4545C141.08 80.2822 141.676 77.5833 142.869 75.358C144.063 73.1326 145.687 71.4375 147.741 70.2727C149.796 69.0985 152.116 68.5114 154.702 68.5114C157.268 68.5114 159.579 69.0985 161.634 70.2727C163.698 71.4375 165.327 73.1326 166.52 75.358C167.723 77.5833 168.324 80.2822 168.324 83.4545ZM162.088 83.4545C162.088 81.3996 161.78 79.6667 161.165 78.2557C160.559 76.8447 159.702 75.7746 158.594 75.0455C157.486 74.3163 156.188 73.9517 154.702 73.9517C153.215 73.9517 151.918 74.3163 150.81 75.0455C149.702 75.7746 148.84 76.8447 148.224 78.2557C147.618 79.6667 147.315 81.3996 147.315 83.4545C147.315 85.5095 147.618 87.2424 148.224 88.6534C148.84 90.0644 149.702 91.1345 150.81 91.8636C151.918 92.5928 153.215 92.9574 154.702 92.9574C156.188 92.9574 157.486 92.5928 158.594 91.8636C159.702 91.1345 160.559 90.0644 161.165 88.6534C161.78 87.2424 162.088 85.5095 162.088 83.4545ZM197.212 68.9091V98H191.9L179.244 79.6903H179.031V98H172.88V68.9091H178.278L190.835 87.2045H191.09V68.9091H197.212ZM221.864 98H211.552V68.9091H221.95C224.876 68.9091 227.395 69.4915 229.506 70.6562C231.618 71.8116 233.242 73.4735 234.379 75.642C235.524 77.8106 236.097 80.4053 236.097 83.4261C236.097 86.4564 235.524 89.0606 234.379 91.2386C233.242 93.4167 231.609 95.0881 229.478 96.2528C227.357 97.4176 224.819 98 221.864 98ZM217.702 92.7301H221.609C223.427 92.7301 224.956 92.4081 226.197 91.7642C227.447 91.1108 228.384 90.1023 229.009 88.7386C229.644 87.3655 229.961 85.5947 229.961 83.4261C229.961 81.2765 229.644 79.5199 229.009 78.1562C228.384 76.7926 227.451 75.7888 226.211 75.1449C224.97 74.5009 223.441 74.179 221.623 74.179H217.702V92.7301ZM240.653 98V68.9091H260.256V73.9801H246.804V80.9119H259.247V85.983H246.804V92.929H260.312V98H240.653ZM274.403 68.9091H281.989L290 88.4545H290.341L298.352 68.9091H305.938V98H299.972V79.0653H299.73L292.202 97.858H288.139L280.611 78.9943H280.369V98H274.403V68.9091ZM316.019 98H309.428L319.471 68.9091H327.397L337.425 98H330.835L323.548 75.5568H323.32L316.019 98ZM315.607 86.5653H331.175V91.3665H315.607V86.5653ZM336.264 73.9801V68.9091H360.156V73.9801H351.25V98H345.17V73.9801H336.264ZM364.091 98V68.9091H383.693V73.9801H370.241V80.9119H382.685V85.983H370.241V92.929H383.75V98H364.091ZM388.583 98V68.9091H400.06C402.257 68.9091 404.132 69.3021 405.685 70.0881C407.248 70.8646 408.436 71.9678 409.251 73.3977C410.075 74.8182 410.487 76.4896 410.487 78.4119C410.487 80.3437 410.07 82.0057 409.237 83.3977C408.403 84.7803 407.196 85.8409 405.614 86.5795C404.042 87.3182 402.139 87.6875 399.904 87.6875H392.219V82.7443H398.91C400.084 82.7443 401.059 82.5833 401.836 82.2614C402.612 81.9394 403.19 81.4564 403.569 80.8125C403.957 80.1686 404.151 79.3684 404.151 78.4119C404.151 77.446 403.957 76.6316 403.569 75.9688C403.19 75.3059 402.608 74.804 401.822 74.4631C401.045 74.1127 400.065 73.9375 398.881 73.9375H394.734V98H388.583ZM404.293 84.7614L411.523 98H404.734L397.66 84.7614H404.293ZM420.984 68.9091V98H414.833V68.9091H420.984ZM426.044 98V68.9091H445.646V73.9801H432.195V80.9119H444.638V85.983H432.195V92.929H445.703V98H426.044ZM450.536 98V68.9091H456.687V92.929H469.158V98H450.536ZM497.898 68.9091V98H491.747V68.9091H497.898ZM502.958 98V68.9091H522.219V73.9801H509.109V80.9119H520.941V85.983H509.109V98H502.958ZM527.738 98H521.147L531.19 68.9091H539.116L549.144 98H542.553L535.266 75.5568H535.039L527.738 98ZM527.326 86.5653H542.894V91.3665H527.326V86.5653ZM566.126 81.054V85.8551H552.859V81.054H566.126ZM571.396 68.9091H578.981L586.992 88.4545H587.333L595.344 68.9091H602.93V98H596.964V79.0653H596.722L589.194 97.858H585.131L577.603 78.9943H577.362V98H571.396V68.9091ZM632.33 68.9091V98H627.017L614.361 79.6903H614.148V98H607.997V68.9091H613.395L625.952 87.2045H626.207V68.9091H632.33ZM653.192 77.2756C653.079 76.1297 652.591 75.2396 651.729 74.6051C650.868 73.9706 649.698 73.6534 648.221 73.6534C647.217 73.6534 646.37 73.7955 645.678 74.0795C644.987 74.3542 644.457 74.7377 644.087 75.2301C643.728 75.7225 643.548 76.2812 643.548 76.9062C643.529 77.4271 643.638 77.8816 643.874 78.2699C644.121 78.6581 644.457 78.9943 644.883 79.2784C645.309 79.553 645.801 79.7945 646.36 80.0028C646.919 80.2017 647.515 80.3722 648.15 80.5142L650.763 81.1392C652.032 81.4233 653.197 81.8021 654.258 82.2756C655.318 82.7491 656.237 83.3314 657.013 84.0227C657.79 84.714 658.391 85.5284 658.817 86.4659C659.253 87.4034 659.476 88.4782 659.485 89.6903C659.476 91.4706 659.021 93.0142 658.121 94.321C657.231 95.6184 655.943 96.6269 654.258 97.3466C652.582 98.0568 650.56 98.4119 648.192 98.4119C645.844 98.4119 643.799 98.0521 642.056 97.3324C640.323 96.6127 638.969 95.5473 637.994 94.1364C637.028 92.7159 636.521 90.9593 636.474 88.8665H642.425C642.492 89.8419 642.771 90.6562 643.263 91.3097C643.765 91.9536 644.433 92.4413 645.266 92.7727C646.109 93.0947 647.061 93.2557 648.121 93.2557C649.163 93.2557 650.067 93.1042 650.835 92.8011C651.611 92.4981 652.212 92.0767 652.638 91.5369C653.065 90.9972 653.278 90.3769 653.278 89.6761C653.278 89.0227 653.084 88.4735 652.695 88.0284C652.317 87.5833 651.758 87.2045 651.019 86.892C650.29 86.5795 649.395 86.2955 648.335 86.0398L645.167 85.2443C642.714 84.6477 640.778 83.715 639.357 82.446C637.937 81.1771 637.231 79.4678 637.241 77.3182C637.231 75.5568 637.7 74.018 638.647 72.7017C639.603 71.3854 640.915 70.358 642.582 69.6193C644.248 68.8807 646.142 68.5114 648.263 68.5114C650.423 68.5114 652.307 68.8807 653.917 69.6193C655.536 70.358 656.796 71.3854 657.695 72.7017C658.595 74.018 659.059 75.5426 659.087 77.2756H653.192Z" fill="#963333"/>
<path d="M95.5284 155.909H103.114L111.125 175.455H111.466L119.477 155.909H127.062V185H121.097V166.065H120.855L113.327 184.858H109.264L101.736 165.994H101.494V185H95.5284V155.909ZM141.96 185.426C139.715 185.426 137.783 184.972 136.164 184.062C134.554 183.144 133.314 181.847 132.442 180.17C131.571 178.485 131.136 176.491 131.136 174.19C131.136 171.946 131.571 169.976 132.442 168.281C133.314 166.586 134.54 165.265 136.121 164.318C137.712 163.371 139.578 162.898 141.718 162.898C143.157 162.898 144.497 163.13 145.738 163.594C146.988 164.048 148.077 164.735 149.005 165.653C149.942 166.572 150.672 167.727 151.192 169.119C151.713 170.502 151.974 172.121 151.974 173.977V175.639H133.55V171.889H146.278C146.278 171.018 146.088 170.246 145.71 169.574C145.331 168.902 144.805 168.376 144.133 167.997C143.47 167.609 142.698 167.415 141.817 167.415C140.899 167.415 140.085 167.628 139.374 168.054C138.674 168.471 138.124 169.034 137.727 169.744C137.329 170.445 137.125 171.226 137.116 172.088V175.653C137.116 176.733 137.315 177.666 137.712 178.452C138.12 179.238 138.692 179.844 139.431 180.27C140.17 180.696 141.046 180.909 142.059 180.909C142.731 180.909 143.347 180.814 143.906 180.625C144.464 180.436 144.942 180.152 145.34 179.773C145.738 179.394 146.041 178.93 146.249 178.381L151.846 178.75C151.562 180.095 150.979 181.269 150.099 182.273C149.228 183.267 148.101 184.044 146.718 184.602C145.345 185.152 143.759 185.426 141.96 185.426ZM167.528 163.182V167.727H154.388V163.182H167.528ZM157.371 157.955H163.423V178.295C163.423 178.854 163.508 179.29 163.678 179.602C163.849 179.905 164.085 180.118 164.388 180.241C164.701 180.365 165.061 180.426 165.468 180.426C165.752 180.426 166.036 180.402 166.32 180.355C166.604 180.298 166.822 180.256 166.974 180.227L167.925 184.73C167.622 184.825 167.196 184.934 166.647 185.057C166.098 185.189 165.43 185.27 164.644 185.298C163.186 185.355 161.907 185.161 160.809 184.716C159.72 184.271 158.872 183.58 158.266 182.642C157.66 181.705 157.362 180.521 157.371 179.091V157.955ZM171.356 185V181.392L182.038 168.168V168.011H171.725V163.182H189.325V167.116L179.296 180.014V180.17H189.694V185H171.356ZM228.025 155.909V185H222.712L210.056 166.69H209.843V185H203.692V155.909H209.09L221.647 174.205H221.903V155.909H228.025ZM246.984 175.71V163.182H253.036V185H247.226V181.037H246.999C246.506 182.315 245.687 183.343 244.541 184.119C243.405 184.896 242.018 185.284 240.379 185.284C238.921 185.284 237.638 184.953 236.53 184.29C235.422 183.627 234.555 182.685 233.93 181.463C233.315 180.241 233.002 178.778 232.993 177.074V163.182H239.044V175.994C239.054 177.282 239.399 178.3 240.081 179.048C240.763 179.796 241.677 180.17 242.822 180.17C243.552 180.17 244.233 180.005 244.868 179.673C245.502 179.332 246.014 178.83 246.402 178.168C246.8 177.505 246.994 176.686 246.984 175.71ZM257.876 185V163.182H263.643V167.031H263.898C264.353 165.753 265.111 164.744 266.171 164.006C267.232 163.267 268.501 162.898 269.978 162.898C271.474 162.898 272.748 163.272 273.799 164.02C274.85 164.759 275.551 165.762 275.901 167.031H276.129C276.574 165.781 277.379 164.782 278.543 164.034C279.718 163.277 281.105 162.898 282.705 162.898C284.741 162.898 286.394 163.546 287.663 164.844C288.941 166.132 289.58 167.959 289.58 170.327V185H283.543V171.52C283.543 170.308 283.221 169.399 282.577 168.793C281.933 168.187 281.129 167.884 280.163 167.884C279.064 167.884 278.207 168.234 277.592 168.935C276.976 169.626 276.668 170.54 276.668 171.676V185H270.802V171.392C270.802 170.322 270.494 169.47 269.879 168.835C269.272 168.201 268.472 167.884 267.478 167.884C266.806 167.884 266.2 168.054 265.66 168.395C265.129 168.726 264.708 169.195 264.396 169.801C264.083 170.398 263.927 171.098 263.927 171.903V185H257.876ZM304.303 185.426C302.059 185.426 300.127 184.972 298.508 184.062C296.898 183.144 295.657 181.847 294.786 180.17C293.915 178.485 293.479 176.491 293.479 174.19C293.479 171.946 293.915 169.976 294.786 168.281C295.657 166.586 296.884 165.265 298.465 164.318C300.056 163.371 301.922 162.898 304.062 162.898C305.501 162.898 306.841 163.13 308.082 163.594C309.332 164.048 310.421 164.735 311.349 165.653C312.286 166.572 313.015 167.727 313.536 169.119C314.057 170.502 314.317 172.121 314.317 173.977V175.639H295.894V171.889H308.621C308.621 171.018 308.432 170.246 308.053 169.574C307.674 168.902 307.149 168.376 306.477 167.997C305.814 167.609 305.042 167.415 304.161 167.415C303.243 167.415 302.428 167.628 301.718 168.054C301.017 168.471 300.468 169.034 300.07 169.744C299.673 170.445 299.469 171.226 299.46 172.088V175.653C299.46 176.733 299.658 177.666 300.056 178.452C300.463 179.238 301.036 179.844 301.775 180.27C302.513 180.696 303.389 180.909 304.403 180.909C305.075 180.909 305.691 180.814 306.249 180.625C306.808 180.436 307.286 180.152 307.684 179.773C308.082 179.394 308.385 178.93 308.593 178.381L314.19 178.75C313.906 180.095 313.323 181.269 312.442 182.273C311.571 183.267 310.444 184.044 309.062 184.602C307.689 185.152 306.103 185.426 304.303 185.426ZM318.266 185V163.182H324.133V166.989H324.36C324.758 165.634 325.425 164.612 326.363 163.92C327.3 163.22 328.38 162.869 329.602 162.869C329.905 162.869 330.231 162.888 330.582 162.926C330.932 162.964 331.24 163.016 331.505 163.082V168.452C331.221 168.366 330.828 168.291 330.326 168.224C329.824 168.158 329.365 168.125 328.948 168.125C328.058 168.125 327.263 168.319 326.562 168.707C325.871 169.086 325.321 169.616 324.914 170.298C324.516 170.98 324.317 171.766 324.317 172.656V185H318.266ZM334.634 185V163.182H340.685V185H334.634ZM337.673 160.369C336.774 160.369 336.002 160.071 335.358 159.474C334.723 158.868 334.406 158.144 334.406 157.301C334.406 156.468 334.723 155.753 335.358 155.156C336.002 154.55 336.774 154.247 337.673 154.247C338.573 154.247 339.34 154.55 339.974 155.156C340.618 155.753 340.94 156.468 340.94 157.301C340.94 158.144 340.618 158.868 339.974 159.474C339.34 160.071 338.573 160.369 337.673 160.369ZM355.39 185.426C353.155 185.426 351.233 184.953 349.623 184.006C348.022 183.049 346.791 181.723 345.93 180.028C345.077 178.333 344.651 176.383 344.651 174.176C344.651 171.941 345.082 169.981 345.944 168.295C346.815 166.6 348.051 165.279 349.651 164.332C351.252 163.376 353.155 162.898 355.362 162.898C357.265 162.898 358.932 163.243 360.362 163.935C361.791 164.626 362.923 165.597 363.756 166.847C364.59 168.097 365.049 169.564 365.134 171.25H359.424C359.263 170.161 358.837 169.285 358.146 168.622C357.464 167.95 356.569 167.614 355.461 167.614C354.523 167.614 353.704 167.869 353.004 168.381C352.312 168.883 351.772 169.616 351.384 170.582C350.996 171.548 350.802 172.718 350.802 174.091C350.802 175.483 350.991 176.667 351.37 177.642C351.758 178.617 352.303 179.361 353.004 179.872C353.704 180.384 354.523 180.639 355.461 180.639C356.152 180.639 356.772 180.497 357.322 180.213C357.88 179.929 358.34 179.517 358.7 178.977C359.069 178.428 359.31 177.77 359.424 177.003H365.134C365.04 178.67 364.585 180.137 363.771 181.406C362.966 182.666 361.853 183.651 360.433 184.361C359.012 185.071 357.331 185.426 355.39 185.426ZM394.161 164.276C394.048 163.13 393.56 162.24 392.698 161.605C391.836 160.971 390.667 160.653 389.19 160.653C388.186 160.653 387.338 160.795 386.647 161.08C385.956 161.354 385.425 161.738 385.056 162.23C384.696 162.723 384.516 163.281 384.516 163.906C384.497 164.427 384.606 164.882 384.843 165.27C385.089 165.658 385.425 165.994 385.852 166.278C386.278 166.553 386.77 166.795 387.329 167.003C387.888 167.202 388.484 167.372 389.119 167.514L391.732 168.139C393.001 168.423 394.166 168.802 395.227 169.276C396.287 169.749 397.206 170.331 397.982 171.023C398.759 171.714 399.36 172.528 399.786 173.466C400.222 174.403 400.444 175.478 400.454 176.69C400.444 178.471 399.99 180.014 399.09 181.321C398.2 182.618 396.912 183.627 395.227 184.347C393.55 185.057 391.529 185.412 389.161 185.412C386.813 185.412 384.767 185.052 383.025 184.332C381.292 183.613 379.938 182.547 378.962 181.136C377.996 179.716 377.49 177.959 377.442 175.866H383.394C383.46 176.842 383.74 177.656 384.232 178.31C384.734 178.954 385.402 179.441 386.235 179.773C387.078 180.095 388.03 180.256 389.09 180.256C390.132 180.256 391.036 180.104 391.803 179.801C392.58 179.498 393.181 179.077 393.607 178.537C394.033 177.997 394.246 177.377 394.246 176.676C394.246 176.023 394.052 175.473 393.664 175.028C393.285 174.583 392.727 174.205 391.988 173.892C391.259 173.58 390.364 173.295 389.303 173.04L386.136 172.244C383.683 171.648 381.746 170.715 380.326 169.446C378.906 168.177 378.2 166.468 378.21 164.318C378.2 162.557 378.669 161.018 379.616 159.702C380.572 158.385 381.884 157.358 383.55 156.619C385.217 155.881 387.111 155.511 389.232 155.511C391.391 155.511 393.276 155.881 394.886 156.619C396.505 157.358 397.764 158.385 398.664 159.702C399.564 161.018 400.028 162.543 400.056 164.276H394.161ZM414.335 185.426C412.1 185.426 410.178 184.953 408.568 184.006C406.968 183.049 405.737 181.723 404.875 180.028C404.023 178.333 403.597 176.383 403.597 174.176C403.597 171.941 404.027 169.981 404.889 168.295C405.76 166.6 406.996 165.279 408.597 164.332C410.197 163.376 412.1 162.898 414.307 162.898C416.21 162.898 417.877 163.243 419.307 163.935C420.737 164.626 421.868 165.597 422.702 166.847C423.535 168.097 423.994 169.564 424.08 171.25H418.369C418.208 170.161 417.782 169.285 417.091 168.622C416.409 167.95 415.514 167.614 414.406 167.614C413.469 167.614 412.65 167.869 411.949 168.381C411.258 168.883 410.718 169.616 410.33 170.582C409.941 171.548 409.747 172.718 409.747 174.091C409.747 175.483 409.937 176.667 410.315 177.642C410.704 178.617 411.248 179.361 411.949 179.872C412.65 180.384 413.469 180.639 414.406 180.639C415.098 180.639 415.718 180.497 416.267 180.213C416.826 179.929 417.285 179.517 417.645 178.977C418.014 178.428 418.256 177.77 418.369 177.003H424.08C423.985 178.67 423.53 180.137 422.716 181.406C421.911 182.666 420.798 183.651 419.378 184.361C417.957 185.071 416.277 185.426 414.335 185.426ZM434.005 172.386V185H427.954V155.909H433.835V167.031H434.09C434.583 165.743 435.378 164.735 436.477 164.006C437.575 163.267 438.953 162.898 440.61 162.898C442.125 162.898 443.446 163.229 444.573 163.892C445.71 164.545 446.59 165.488 447.215 166.719C447.85 167.94 448.162 169.403 448.153 171.108V185H442.102V172.188C442.111 170.843 441.77 169.796 441.079 169.048C440.397 168.3 439.441 167.926 438.21 167.926C437.386 167.926 436.656 168.101 436.022 168.452C435.397 168.802 434.905 169.313 434.545 169.986C434.194 170.649 434.014 171.449 434.005 172.386ZM462.773 185.426C460.566 185.426 458.658 184.957 457.048 184.02C455.448 183.073 454.212 181.757 453.341 180.071C452.47 178.376 452.034 176.411 452.034 174.176C452.034 171.922 452.47 169.953 453.341 168.267C454.212 166.572 455.448 165.256 457.048 164.318C458.658 163.371 460.566 162.898 462.773 162.898C464.979 162.898 466.883 163.371 468.483 164.318C470.093 165.256 471.333 166.572 472.205 168.267C473.076 169.953 473.511 171.922 473.511 174.176C473.511 176.411 473.076 178.376 472.205 180.071C471.333 181.757 470.093 183.073 468.483 184.02C466.883 184.957 464.979 185.426 462.773 185.426ZM462.801 180.739C463.805 180.739 464.643 180.455 465.315 179.886C465.988 179.309 466.494 178.523 466.835 177.528C467.186 176.534 467.361 175.402 467.361 174.134C467.361 172.865 467.186 171.733 466.835 170.739C466.494 169.744 465.988 168.958 465.315 168.381C464.643 167.803 463.805 167.514 462.801 167.514C461.788 167.514 460.936 167.803 460.244 168.381C459.563 168.958 459.046 169.744 458.696 170.739C458.355 171.733 458.185 172.865 458.185 174.134C458.185 175.402 458.355 176.534 458.696 177.528C459.046 178.523 459.563 179.309 460.244 179.886C460.936 180.455 461.788 180.739 462.801 180.739ZM487.304 185.426C485.098 185.426 483.189 184.957 481.58 184.02C479.979 183.073 478.743 181.757 477.872 180.071C477.001 178.376 476.565 176.411 476.565 174.176C476.565 171.922 477.001 169.953 477.872 168.267C478.743 166.572 479.979 165.256 481.58 164.318C483.189 163.371 485.098 162.898 487.304 162.898C489.51 162.898 491.414 163.371 493.014 164.318C494.624 165.256 495.865 166.572 496.736 168.267C497.607 169.953 498.043 171.922 498.043 174.176C498.043 176.411 497.607 178.376 496.736 180.071C495.865 181.757 494.624 183.073 493.014 184.02C491.414 184.957 489.51 185.426 487.304 185.426ZM487.332 180.739C488.336 180.739 489.174 180.455 489.847 179.886C490.519 179.309 491.026 178.523 491.366 177.528C491.717 176.534 491.892 175.402 491.892 174.134C491.892 172.865 491.717 171.733 491.366 170.739C491.026 169.744 490.519 168.958 489.847 168.381C489.174 167.803 488.336 167.514 487.332 167.514C486.319 167.514 485.467 167.803 484.776 168.381C484.094 168.958 483.578 169.744 483.227 170.739C482.886 171.733 482.716 172.865 482.716 174.134C482.716 175.402 482.886 176.534 483.227 177.528C483.578 178.523 484.094 179.309 484.776 179.886C485.467 180.455 486.319 180.739 487.332 180.739ZM508.028 155.909V185H501.977V155.909H508.028Z" fill="white"/>
</svg>
