<svg width="472" height="572" viewBox="0 0 472 572" fill="none" xmlns="http://www.w3.org/2000/svg">
<path d="M472 286C472 443.953 366.339 572 236 572C105.661 572 0 443.953 0 286C0 128.047 105.661 0 236 0C366.339 0 472 128.047 472 286Z" fill="#0C0631"/>
<path d="M90.2727 247.909H103.727L135.364 325.182H136.455L168.091 247.909H181.545V341H171V270.273H170.091L141 341H130.818L101.727 270.273H100.818V341H90.2727V247.909ZM277.966 247.909V341H267.057L216.33 267.909H215.42V341H204.148V247.909H215.057L265.966 321.182H266.875V247.909H277.966ZM351.432 271.182C350.886 266.576 348.674 263 344.795 260.455C340.917 257.909 336.159 256.636 330.523 256.636C326.402 256.636 322.795 257.303 319.705 258.636C316.644 259.97 314.25 261.803 312.523 264.136C310.826 266.47 309.977 269.121 309.977 272.091C309.977 274.576 310.568 276.712 311.75 278.5C312.962 280.258 314.508 281.727 316.386 282.909C318.265 284.061 320.235 285.015 322.295 285.773C324.356 286.5 326.25 287.091 327.977 287.545L337.432 290.091C339.856 290.727 342.553 291.606 345.523 292.727C348.523 293.848 351.386 295.379 354.114 297.318C356.871 299.227 359.144 301.682 360.932 304.682C362.72 307.682 363.614 311.364 363.614 315.727C363.614 320.758 362.295 325.303 359.659 329.364C357.053 333.424 353.235 336.652 348.205 339.045C343.205 341.439 337.129 342.636 329.977 342.636C323.311 342.636 317.538 341.561 312.659 339.409C307.811 337.258 303.992 334.258 301.205 330.409C298.447 326.561 296.886 322.091 296.523 317H308.159C308.462 320.515 309.644 323.424 311.705 325.727C313.795 328 316.432 329.697 319.614 330.818C322.826 331.909 326.28 332.455 329.977 332.455C334.28 332.455 338.144 331.758 341.568 330.364C344.992 328.939 347.705 326.97 349.705 324.455C351.705 321.909 352.705 318.939 352.705 315.545C352.705 312.455 351.841 309.939 350.114 308C348.386 306.061 346.114 304.485 343.295 303.273C340.477 302.061 337.432 301 334.159 300.091L322.705 296.818C315.432 294.727 309.674 291.742 305.432 287.864C301.189 283.985 299.068 278.909 299.068 272.636C299.068 267.424 300.477 262.879 303.295 259C306.144 255.091 309.962 252.061 314.75 249.909C319.568 247.727 324.947 246.636 330.886 246.636C336.886 246.636 342.22 247.712 346.886 249.864C351.553 251.985 355.25 254.894 357.977 258.591C360.735 262.288 362.189 266.485 362.341 271.182H351.432Z" fill="#902525"/>
<path d="M102.273 200V106.909H113.545V190H156.818V200H102.273ZM249.193 153.455C249.193 163.273 247.42 171.758 243.875 178.909C240.33 186.061 235.466 191.576 229.284 195.455C223.102 199.333 216.042 201.273 208.102 201.273C200.163 201.273 193.102 199.333 186.92 195.455C180.739 191.576 175.875 186.061 172.33 178.909C168.784 171.758 167.011 163.273 167.011 153.455C167.011 143.636 168.784 135.152 172.33 128C175.875 120.848 180.739 115.333 186.92 111.455C193.102 107.576 200.163 105.636 208.102 105.636C216.042 105.636 223.102 107.576 229.284 111.455C235.466 115.333 240.33 120.848 243.875 128C247.42 135.152 249.193 143.636 249.193 153.455ZM238.284 153.455C238.284 145.394 236.936 138.591 234.239 133.045C231.572 127.5 227.951 123.303 223.375 120.455C218.83 117.606 213.739 116.182 208.102 116.182C202.466 116.182 197.36 117.606 192.784 120.455C188.239 123.303 184.617 127.5 181.92 133.045C179.254 138.591 177.92 145.394 177.92 153.455C177.92 161.515 179.254 168.318 181.92 173.864C184.617 179.409 188.239 183.606 192.784 186.455C197.36 189.303 202.466 190.727 208.102 190.727C213.739 190.727 218.83 189.303 223.375 186.455C227.951 183.606 231.572 179.409 234.239 173.864C236.936 168.318 238.284 161.515 238.284 153.455ZM343.057 136H331.784C331.117 132.758 329.951 129.909 328.284 127.455C326.648 125 324.648 122.939 322.284 121.273C319.951 119.576 317.36 118.303 314.511 117.455C311.663 116.606 308.693 116.182 305.602 116.182C299.966 116.182 294.86 117.606 290.284 120.455C285.739 123.303 282.117 127.5 279.42 133.045C276.754 138.591 275.42 145.394 275.42 153.455C275.42 161.515 276.754 168.318 279.42 173.864C282.117 179.409 285.739 183.606 290.284 186.455C294.86 189.303 299.966 190.727 305.602 190.727C308.693 190.727 311.663 190.303 314.511 189.455C317.36 188.606 319.951 187.348 322.284 185.682C324.648 183.985 326.648 181.909 328.284 179.455C329.951 176.97 331.117 174.121 331.784 170.909H343.057C342.208 175.667 340.663 179.924 338.42 183.682C336.178 187.439 333.39 190.636 330.057 193.273C326.723 195.879 322.981 197.864 318.83 199.227C314.708 200.591 310.299 201.273 305.602 201.273C297.663 201.273 290.602 199.333 284.42 195.455C278.239 191.576 273.375 186.061 269.83 178.909C266.284 171.758 264.511 163.273 264.511 153.455C264.511 143.636 266.284 135.152 269.83 128C273.375 120.848 278.239 115.333 284.42 111.455C290.602 107.576 297.663 105.636 305.602 105.636C310.299 105.636 314.708 106.318 318.83 107.682C322.981 109.045 326.723 111.045 330.057 113.682C333.39 116.288 336.178 119.47 338.42 123.227C340.663 126.955 342.208 131.212 343.057 136Z" fill="#902525"/>
<path d="M93.1136 390.545H95.6364L101.568 405.034H101.773L107.705 390.545H110.227V408H108.25V394.739H108.08L102.625 408H100.716L95.2614 394.739H95.0909V408H93.1136V390.545ZM119.681 408.273C118.42 408.273 117.332 407.994 116.417 407.438C115.508 406.875 114.806 406.091 114.312 405.085C113.823 404.074 113.579 402.898 113.579 401.557C113.579 400.216 113.823 399.034 114.312 398.011C114.806 396.983 115.494 396.182 116.374 395.608C117.261 395.028 118.295 394.739 119.477 394.739C120.158 394.739 120.832 394.852 121.496 395.08C122.161 395.307 122.766 395.676 123.312 396.188C123.857 396.693 124.292 397.364 124.616 398.199C124.94 399.034 125.102 400.062 125.102 401.284V402.136H115.011V400.398H123.056C123.056 399.659 122.908 399 122.613 398.42C122.323 397.841 121.908 397.384 121.369 397.048C120.835 396.713 120.204 396.545 119.477 396.545C118.675 396.545 117.982 396.744 117.397 397.142C116.817 397.534 116.371 398.045 116.059 398.676C115.746 399.307 115.59 399.983 115.59 400.705V401.864C115.59 402.852 115.761 403.69 116.102 404.378C116.448 405.06 116.928 405.58 117.542 405.938C118.156 406.29 118.869 406.466 119.681 406.466C120.21 406.466 120.687 406.392 121.113 406.244C121.545 406.091 121.917 405.864 122.229 405.562C122.542 405.256 122.783 404.875 122.954 404.42L124.897 404.966C124.692 405.625 124.349 406.205 123.866 406.705C123.383 407.199 122.786 407.585 122.076 407.864C121.366 408.136 120.567 408.273 119.681 408.273ZM133.854 394.909V396.614H127.07V394.909H133.854ZM129.048 391.773H131.059V404.25C131.059 404.818 131.141 405.244 131.306 405.528C131.477 405.807 131.692 405.994 131.954 406.091C132.221 406.182 132.502 406.227 132.798 406.227C133.019 406.227 133.201 406.216 133.343 406.193C133.485 406.165 133.599 406.142 133.684 406.125L134.093 407.932C133.957 407.983 133.766 408.034 133.522 408.085C133.278 408.142 132.968 408.17 132.593 408.17C132.025 408.17 131.468 408.048 130.923 407.804C130.383 407.56 129.934 407.188 129.576 406.688C129.224 406.188 129.048 405.557 129.048 404.795V391.773ZM136.505 408V406.466L143.937 396.92V396.784H136.744V394.909H146.528V396.511L139.3 405.989V406.125H146.766V408H136.505ZM177.478 390.545V408H175.433L165.921 394.295H165.751V408H163.637V390.545H165.683L175.228 404.284H175.398V390.545H177.478ZM189.685 402.648V394.909H191.696V408H189.685V405.784H189.548C189.241 406.449 188.764 407.014 188.116 407.48C187.469 407.94 186.651 408.17 185.662 408.17C184.844 408.17 184.116 407.991 183.48 407.634C182.844 407.27 182.344 406.724 181.98 405.997C181.616 405.264 181.435 404.341 181.435 403.227V394.909H183.446V403.091C183.446 404.045 183.713 404.807 184.247 405.375C184.787 405.943 185.474 406.227 186.31 406.227C186.81 406.227 187.318 406.099 187.835 405.844C188.358 405.588 188.795 405.196 189.148 404.668C189.506 404.139 189.685 403.466 189.685 402.648ZM195.38 408V394.909H197.323V396.955H197.494C197.766 396.256 198.207 395.713 198.815 395.327C199.423 394.935 200.153 394.739 201.005 394.739C201.869 394.739 202.587 394.935 203.161 395.327C203.741 395.713 204.192 396.256 204.516 396.955H204.653C204.988 396.278 205.491 395.741 206.161 395.344C206.832 394.94 207.636 394.739 208.573 394.739C209.744 394.739 210.701 395.105 211.445 395.838C212.19 396.565 212.562 397.699 212.562 399.239V408H210.55V399.239C210.55 398.273 210.286 397.582 209.758 397.168C209.229 396.753 208.607 396.545 207.891 396.545C206.971 396.545 206.258 396.824 205.752 397.381C205.246 397.932 204.994 398.631 204.994 399.477V408H202.948V399.034C202.948 398.29 202.707 397.69 202.224 397.236C201.741 396.776 201.119 396.545 200.357 396.545C199.835 396.545 199.346 396.685 198.891 396.963C198.442 397.241 198.079 397.628 197.8 398.122C197.528 398.611 197.391 399.176 197.391 399.818V408H195.38ZM221.728 408.273C220.467 408.273 219.379 407.994 218.464 407.438C217.555 406.875 216.853 406.091 216.359 405.085C215.87 404.074 215.626 402.898 215.626 401.557C215.626 400.216 215.87 399.034 216.359 398.011C216.853 396.983 217.54 396.182 218.421 395.608C219.308 395.028 220.342 394.739 221.523 394.739C222.205 394.739 222.879 394.852 223.543 395.08C224.208 395.307 224.813 395.676 225.359 396.188C225.904 396.693 226.339 397.364 226.663 398.199C226.987 399.034 227.148 400.062 227.148 401.284V402.136H217.058V400.398H225.103C225.103 399.659 224.955 399 224.66 398.42C224.37 397.841 223.955 397.384 223.415 397.048C222.881 396.713 222.251 396.545 221.523 396.545C220.722 396.545 220.029 396.744 219.444 397.142C218.864 397.534 218.418 398.045 218.106 398.676C217.793 399.307 217.637 399.983 217.637 400.705V401.864C217.637 402.852 217.808 403.69 218.148 404.378C218.495 405.06 218.975 405.58 219.589 405.938C220.202 406.29 220.915 406.466 221.728 406.466C222.256 406.466 222.734 406.392 223.16 406.244C223.592 406.091 223.964 405.864 224.276 405.562C224.589 405.256 224.83 404.875 225.001 404.42L226.944 404.966C226.739 405.625 226.396 406.205 225.913 406.705C225.43 407.199 224.833 407.585 224.123 407.864C223.413 408.136 222.614 408.273 221.728 408.273ZM230.208 408V394.909H232.151V396.886H232.288C232.526 396.239 232.958 395.713 233.583 395.31C234.208 394.906 234.913 394.705 235.697 394.705C235.844 394.705 236.029 394.707 236.251 394.713C236.472 394.719 236.64 394.727 236.754 394.739V396.784C236.685 396.767 236.529 396.741 236.285 396.707C236.046 396.668 235.793 396.648 235.526 396.648C234.89 396.648 234.322 396.781 233.822 397.048C233.327 397.31 232.935 397.673 232.646 398.139C232.362 398.599 232.219 399.125 232.219 399.716V408H230.208ZM239.138 408V394.909H241.149V408H239.138ZM240.161 392.727C239.768 392.727 239.43 392.594 239.146 392.327C238.868 392.06 238.729 391.739 238.729 391.364C238.729 390.989 238.868 390.668 239.146 390.401C239.43 390.134 239.768 390 240.161 390C240.553 390 240.888 390.134 241.166 390.401C241.45 390.668 241.592 390.989 241.592 391.364C241.592 391.739 241.45 392.06 241.166 392.327C240.888 392.594 240.553 392.727 240.161 392.727ZM250.151 408.273C248.924 408.273 247.867 407.983 246.981 407.403C246.094 406.824 245.413 406.026 244.935 405.009C244.458 403.991 244.219 402.83 244.219 401.523C244.219 400.193 244.464 399.02 244.952 398.003C245.447 396.98 246.134 396.182 247.015 395.608C247.901 395.028 248.935 394.739 250.117 394.739C251.038 394.739 251.867 394.909 252.606 395.25C253.344 395.591 253.95 396.068 254.421 396.682C254.893 397.295 255.185 398.011 255.299 398.83H253.288C253.134 398.233 252.793 397.705 252.265 397.244C251.742 396.778 251.038 396.545 250.151 396.545C249.367 396.545 248.68 396.75 248.089 397.159C247.504 397.562 247.046 398.134 246.717 398.872C246.393 399.605 246.231 400.466 246.231 401.455C246.231 402.466 246.39 403.347 246.708 404.097C247.032 404.847 247.487 405.429 248.072 405.844C248.663 406.259 249.356 406.466 250.151 406.466C250.674 406.466 251.148 406.375 251.575 406.193C252.001 406.011 252.362 405.75 252.657 405.409C252.952 405.068 253.163 404.659 253.288 404.182H255.299C255.185 404.955 254.904 405.651 254.455 406.27C254.012 406.884 253.424 407.372 252.691 407.736C251.964 408.094 251.117 408.273 250.151 408.273ZM274.808 394.909C274.705 394.045 274.29 393.375 273.563 392.898C272.836 392.42 271.944 392.182 270.887 392.182C270.114 392.182 269.438 392.307 268.859 392.557C268.285 392.807 267.836 393.151 267.512 393.588C267.194 394.026 267.035 394.523 267.035 395.08C267.035 395.545 267.146 395.946 267.367 396.281C267.594 396.611 267.884 396.886 268.237 397.108C268.589 397.324 268.958 397.503 269.344 397.645C269.731 397.781 270.086 397.892 270.41 397.977L272.183 398.455C272.637 398.574 273.143 398.739 273.7 398.949C274.262 399.159 274.799 399.446 275.31 399.81C275.827 400.168 276.254 400.628 276.589 401.19C276.924 401.753 277.092 402.443 277.092 403.261C277.092 404.205 276.844 405.057 276.35 405.818C275.862 406.58 275.146 407.185 274.202 407.634C273.265 408.082 272.126 408.307 270.785 408.307C269.535 408.307 268.452 408.105 267.538 407.702C266.629 407.298 265.913 406.736 265.39 406.014C264.873 405.293 264.58 404.455 264.512 403.5H266.694C266.751 404.159 266.972 404.705 267.359 405.136C267.751 405.562 268.245 405.881 268.842 406.091C269.444 406.295 270.092 406.398 270.785 406.398C271.592 406.398 272.316 406.267 272.958 406.006C273.6 405.739 274.109 405.369 274.484 404.898C274.859 404.42 275.046 403.864 275.046 403.227C275.046 402.648 274.884 402.176 274.56 401.812C274.237 401.449 273.81 401.153 273.282 400.926C272.754 400.699 272.183 400.5 271.569 400.33L269.421 399.716C268.058 399.324 266.978 398.764 266.183 398.037C265.387 397.31 264.989 396.358 264.989 395.182C264.989 394.205 265.254 393.352 265.782 392.625C266.316 391.892 267.032 391.324 267.93 390.92C268.833 390.511 269.842 390.307 270.955 390.307C272.08 390.307 273.08 390.509 273.955 390.912C274.83 391.31 275.523 391.855 276.035 392.548C276.552 393.241 276.825 394.028 276.853 394.909H274.808ZM285.612 408.273C284.385 408.273 283.328 407.983 282.442 407.403C281.555 406.824 280.874 406.026 280.396 405.009C279.919 403.991 279.68 402.83 279.68 401.523C279.68 400.193 279.925 399.02 280.413 398.003C280.908 396.98 281.595 396.182 282.476 395.608C283.362 395.028 284.396 394.739 285.578 394.739C286.499 394.739 287.328 394.909 288.067 395.25C288.805 395.591 289.411 396.068 289.882 396.682C290.354 397.295 290.646 398.011 290.76 398.83H288.749C288.595 398.233 288.254 397.705 287.726 397.244C287.203 396.778 286.499 396.545 285.612 396.545C284.828 396.545 284.141 396.75 283.55 397.159C282.964 397.562 282.507 398.134 282.178 398.872C281.854 399.605 281.692 400.466 281.692 401.455C281.692 402.466 281.851 403.347 282.169 404.097C282.493 404.847 282.947 405.429 283.533 405.844C284.124 406.259 284.817 406.466 285.612 406.466C286.135 406.466 286.609 406.375 287.036 406.193C287.462 406.011 287.822 405.75 288.118 405.409C288.413 405.068 288.624 404.659 288.749 404.182H290.76C290.646 404.955 290.365 405.651 289.916 406.27C289.473 406.884 288.885 407.372 288.152 407.736C287.425 408.094 286.578 408.273 285.612 408.273ZM295.712 400.125V408H293.7V390.545H295.712V396.955H295.882C296.189 396.278 296.649 395.741 297.263 395.344C297.882 394.94 298.706 394.739 299.734 394.739C300.626 394.739 301.408 394.918 302.078 395.276C302.749 395.628 303.268 396.17 303.638 396.903C304.013 397.631 304.2 398.557 304.2 399.682V408H302.189V399.818C302.189 398.778 301.919 397.974 301.379 397.406C300.845 396.832 300.104 396.545 299.155 396.545C298.496 396.545 297.905 396.685 297.382 396.963C296.865 397.241 296.456 397.648 296.155 398.182C295.859 398.716 295.712 399.364 295.712 400.125ZM313.198 408.273C312.016 408.273 310.979 407.991 310.087 407.429C309.201 406.866 308.508 406.08 308.008 405.068C307.513 404.057 307.266 402.875 307.266 401.523C307.266 400.159 307.513 398.969 308.008 397.952C308.508 396.935 309.201 396.145 310.087 395.582C310.979 395.02 312.016 394.739 313.198 394.739C314.38 394.739 315.414 395.02 316.3 395.582C317.192 396.145 317.886 396.935 318.38 397.952C318.88 398.969 319.13 400.159 319.13 401.523C319.13 402.875 318.88 404.057 318.38 405.068C317.886 406.08 317.192 406.866 316.3 407.429C315.414 407.991 314.38 408.273 313.198 408.273ZM313.198 406.466C314.096 406.466 314.835 406.236 315.414 405.776C315.994 405.315 316.423 404.71 316.701 403.96C316.979 403.21 317.119 402.398 317.119 401.523C317.119 400.648 316.979 399.832 316.701 399.077C316.423 398.321 315.994 397.71 315.414 397.244C314.835 396.778 314.096 396.545 313.198 396.545C312.3 396.545 311.562 396.778 310.982 397.244C310.403 397.71 309.974 398.321 309.695 399.077C309.417 399.832 309.278 400.648 309.278 401.523C309.278 402.398 309.417 403.21 309.695 403.96C309.974 404.71 310.403 405.315 310.982 405.776C311.562 406.236 312.3 406.466 313.198 406.466ZM327.518 408.273C326.337 408.273 325.3 407.991 324.408 407.429C323.521 406.866 322.828 406.08 322.328 405.068C321.834 404.057 321.587 402.875 321.587 401.523C321.587 400.159 321.834 398.969 322.328 397.952C322.828 396.935 323.521 396.145 324.408 395.582C325.3 395.02 326.337 394.739 327.518 394.739C328.7 394.739 329.734 395.02 330.621 395.582C331.513 396.145 332.206 396.935 332.7 397.952C333.2 398.969 333.45 400.159 333.45 401.523C333.45 402.875 333.2 404.057 332.7 405.068C332.206 406.08 331.513 406.866 330.621 407.429C329.734 407.991 328.7 408.273 327.518 408.273ZM327.518 406.466C328.416 406.466 329.155 406.236 329.734 405.776C330.314 405.315 330.743 404.71 331.021 403.96C331.3 403.21 331.439 402.398 331.439 401.523C331.439 400.648 331.3 399.832 331.021 399.077C330.743 398.321 330.314 397.71 329.734 397.244C329.155 396.778 328.416 396.545 327.518 396.545C326.621 396.545 325.882 396.778 325.303 397.244C324.723 397.71 324.294 398.321 324.016 399.077C323.737 399.832 323.598 400.648 323.598 401.523C323.598 402.398 323.737 403.21 324.016 403.96C324.294 404.71 324.723 405.315 325.303 405.776C325.882 406.236 326.621 406.466 327.518 406.466ZM338.532 390.545V408H336.521V390.545H338.532Z" fill="white"/>
</svg>
