<svg width="318" height="386" viewBox="0 0 318 386" fill="none" xmlns="http://www.w3.org/2000/svg">
<path d="M318 193C318 299.591 246.813 386 159 386C71.1867 386 0 299.591 0 193C0 86.409 71.1867 0 159 0C246.813 0 318 86.409 318 193Z" fill="#0C0631"/>
<path d="M72.3636 208V155.636H80.1364V163.818H80.8182C81.9091 161.023 83.6705 158.852 86.1023 157.307C88.5341 155.739 91.4545 154.955 94.8636 154.955C98.3182 154.955 101.193 155.739 103.489 157.307C105.807 158.852 107.614 161.023 108.909 163.818H109.455C110.795 161.114 112.807 158.966 115.489 157.375C118.17 155.761 121.386 154.955 125.136 154.955C129.818 154.955 133.648 156.42 136.625 159.352C139.602 162.261 141.091 166.795 141.091 172.955V208H133.045V172.955C133.045 169.091 131.989 166.33 129.875 164.67C127.761 163.011 125.273 162.182 122.409 162.182C118.727 162.182 115.875 163.295 113.852 165.523C111.83 167.727 110.818 170.523 110.818 173.909V208H102.636V172.136C102.636 169.159 101.67 166.761 99.7386 164.943C97.8068 163.102 95.3182 162.182 92.2727 162.182C90.1818 162.182 88.2273 162.739 86.4091 163.852C84.6136 164.966 83.1591 166.511 82.0455 168.489C80.9545 170.443 80.4091 172.705 80.4091 175.273V208H72.3636ZM163.847 176.5V208H155.801V155.636H163.574V163.818H164.256C165.483 161.159 167.347 159.023 169.847 157.409C172.347 155.773 175.574 154.955 179.528 154.955C183.074 154.955 186.176 155.682 188.835 157.136C191.494 158.568 193.563 160.75 195.04 163.682C196.517 166.591 197.256 170.273 197.256 174.727V208H189.21V175.273C189.21 171.159 188.142 167.955 186.006 165.659C183.869 163.341 180.938 162.182 177.21 162.182C174.642 162.182 172.347 162.739 170.324 163.852C168.324 164.966 166.744 166.591 165.585 168.727C164.426 170.864 163.847 173.455 163.847 176.5ZM249.048 167.364L241.821 169.409C241.366 168.205 240.696 167.034 239.81 165.898C238.946 164.739 237.764 163.784 236.264 163.034C234.764 162.284 232.844 161.909 230.503 161.909C227.298 161.909 224.628 162.648 222.491 164.125C220.378 165.58 219.321 167.432 219.321 169.682C219.321 171.682 220.048 173.261 221.503 174.42C222.957 175.58 225.23 176.545 228.321 177.318L236.094 179.227C240.776 180.364 244.264 182.102 246.56 184.443C248.855 186.761 250.003 189.75 250.003 193.409C250.003 196.409 249.139 199.091 247.412 201.455C245.707 203.818 243.321 205.682 240.253 207.045C237.185 208.409 233.616 209.091 229.548 209.091C224.207 209.091 219.787 207.932 216.287 205.614C212.787 203.295 210.571 199.909 209.639 195.455L217.276 193.545C218.003 196.364 219.378 198.477 221.401 199.886C223.446 201.295 226.116 202 229.412 202C233.162 202 236.139 201.205 238.344 199.614C240.571 198 241.685 196.068 241.685 193.818C241.685 192 241.048 190.477 239.776 189.25C238.503 188 236.548 187.068 233.912 186.455L225.185 184.409C220.389 183.273 216.866 181.511 214.616 179.125C212.389 176.716 211.276 173.705 211.276 170.091C211.276 167.136 212.105 164.523 213.764 162.25C215.446 159.977 217.73 158.193 220.616 156.898C223.526 155.602 226.821 154.955 230.503 154.955C235.685 154.955 239.753 156.091 242.707 158.364C245.685 160.636 247.798 163.636 249.048 167.364Z" fill="#902525"/>
<path d="M73.233 233.818H74.7045L78.1648 242.27H78.2841L81.7443 233.818H83.2159V244H82.0625V236.264H81.9631L78.7812 244H77.6676L74.4858 236.264H74.3864V244H73.233V233.818ZM88.7306 244.159C87.9949 244.159 87.3601 243.997 86.8265 243.672C86.2962 243.344 85.8869 242.886 85.5985 242.3C85.3135 241.71 85.171 241.024 85.171 240.241C85.171 239.459 85.3135 238.77 85.5985 238.173C85.8869 237.573 86.2879 237.106 86.8017 236.771C87.3187 236.433 87.9219 236.264 88.6113 236.264C89.0091 236.264 89.4018 236.33 89.7896 236.463C90.1774 236.596 90.5304 236.811 90.8485 237.109C91.1667 237.404 91.4203 237.795 91.6092 238.283C91.7981 238.77 91.8926 239.37 91.8926 240.082V240.58H86.0062V239.565H90.6994C90.6994 239.134 90.6132 238.75 90.4409 238.412C90.2718 238.074 90.0299 237.807 89.715 237.612C89.4035 237.416 89.0356 237.318 88.6113 237.318C88.144 237.318 87.7396 237.434 87.3983 237.666C87.0602 237.895 86.8 238.193 86.6177 238.561C86.4354 238.929 86.3443 239.323 86.3443 239.744V240.42C86.3443 240.997 86.4437 241.486 86.6426 241.887C86.8448 242.285 87.1248 242.588 87.4828 242.797C87.8407 243.002 88.2567 243.105 88.7306 243.105C89.0389 243.105 89.3173 243.062 89.5659 242.976C89.8178 242.886 90.0349 242.754 90.2172 242.578C90.3994 242.399 90.5403 242.177 90.6397 241.912L91.7733 242.23C91.6539 242.615 91.4534 242.953 91.1717 243.244C90.89 243.533 90.542 243.758 90.1277 243.92C89.7134 244.08 89.2477 244.159 88.7306 244.159ZM96.9984 236.364V237.358H93.041V236.364H96.9984ZM94.1944 234.534H95.3677V241.812C95.3677 242.144 95.4158 242.393 95.5119 242.558C95.6113 242.721 95.7373 242.83 95.8897 242.886C96.0455 242.939 96.2096 242.966 96.3819 242.966C96.5112 242.966 96.6172 242.959 96.7001 242.946C96.783 242.929 96.8493 242.916 96.899 242.906L97.1376 243.96C97.0581 243.99 96.947 244.02 96.8045 244.05C96.662 244.083 96.4814 244.099 96.2626 244.099C95.9312 244.099 95.6064 244.028 95.2882 243.886C94.9733 243.743 94.7115 243.526 94.5027 243.234C94.2972 242.943 94.1944 242.575 94.1944 242.131V234.534ZM98.5446 244V243.105L102.88 237.537V237.457H98.6838V236.364H104.391V237.298L100.175 242.827V242.906H104.53V244H98.5446ZM122.445 233.818V244H121.252L115.704 236.006H115.605V244H114.372V233.818H115.565L121.133 241.832H121.232V233.818H122.445ZM129.566 240.878V236.364H130.739V244H129.566V242.707H129.487C129.308 243.095 129.029 243.425 128.651 243.697C128.273 243.965 127.796 244.099 127.219 244.099C126.742 244.099 126.318 243.995 125.947 243.786C125.576 243.574 125.284 243.256 125.072 242.832C124.86 242.404 124.754 241.866 124.754 241.216V236.364H125.927V241.136C125.927 241.693 126.083 242.137 126.394 242.469C126.709 242.8 127.11 242.966 127.597 242.966C127.889 242.966 128.186 242.891 128.487 242.742C128.792 242.593 129.047 242.364 129.253 242.056C129.462 241.748 129.566 241.355 129.566 240.878ZM132.888 244V236.364H134.022V237.557H134.121C134.28 237.149 134.537 236.833 134.892 236.607C135.247 236.379 135.672 236.264 136.17 236.264C136.673 236.264 137.093 236.379 137.427 236.607C137.765 236.833 138.029 237.149 138.218 237.557H138.297C138.493 237.162 138.786 236.849 139.177 236.617C139.568 236.382 140.037 236.264 140.584 236.264C141.267 236.264 141.826 236.478 142.26 236.906C142.694 237.33 142.911 237.991 142.911 238.889V244H141.738V238.889C141.738 238.326 141.584 237.923 141.275 237.681C140.967 237.439 140.604 237.318 140.187 237.318C139.65 237.318 139.234 237.481 138.939 237.805C138.644 238.127 138.496 238.535 138.496 239.028V244H137.303V238.77C137.303 238.336 137.162 237.986 136.881 237.721C136.599 237.452 136.236 237.318 135.792 237.318C135.487 237.318 135.202 237.399 134.937 237.562C134.675 237.724 134.463 237.95 134.3 238.238C134.141 238.523 134.062 238.853 134.062 239.227V244H132.888ZM148.258 244.159C147.522 244.159 146.887 243.997 146.354 243.672C145.824 243.344 145.414 242.886 145.126 242.3C144.841 241.71 144.698 241.024 144.698 240.241C144.698 239.459 144.841 238.77 145.126 238.173C145.414 237.573 145.815 237.106 146.329 236.771C146.846 236.433 147.449 236.264 148.139 236.264C148.536 236.264 148.929 236.33 149.317 236.463C149.705 236.596 150.058 236.811 150.376 237.109C150.694 237.404 150.948 237.795 151.137 238.283C151.325 238.77 151.42 239.37 151.42 240.082V240.58H145.534V239.565H150.227C150.227 239.134 150.141 238.75 149.968 238.412C149.799 238.074 149.557 237.807 149.242 237.612C148.931 237.416 148.563 237.318 148.139 237.318C147.671 237.318 147.267 237.434 146.926 237.666C146.588 237.895 146.327 238.193 146.145 238.561C145.963 238.929 145.872 239.323 145.872 239.744V240.42C145.872 240.997 145.971 241.486 146.17 241.887C146.372 242.285 146.652 242.588 147.01 242.797C147.368 243.002 147.784 243.105 148.258 243.105C148.566 243.105 148.845 243.062 149.093 242.976C149.345 242.886 149.562 242.754 149.744 242.578C149.927 242.399 150.068 242.177 150.167 241.912L151.301 242.23C151.181 242.615 150.981 242.953 150.699 243.244C150.417 243.533 150.069 243.758 149.655 243.92C149.241 244.08 148.775 244.159 148.258 244.159ZM153.205 244V236.364H154.338V237.517H154.418C154.557 237.139 154.809 236.833 155.173 236.597C155.538 236.362 155.949 236.244 156.406 236.244C156.493 236.244 156.6 236.246 156.73 236.249C156.859 236.253 156.957 236.258 157.023 236.264V237.457C156.983 237.447 156.892 237.433 156.749 237.413C156.61 237.389 156.463 237.378 156.307 237.378C155.936 237.378 155.604 237.456 155.313 237.612C155.024 237.764 154.796 237.976 154.627 238.248C154.461 238.516 154.378 238.823 154.378 239.168V244H153.205ZM158.414 244V236.364H159.587V244H158.414ZM159.01 235.091C158.782 235.091 158.584 235.013 158.419 234.857C158.256 234.701 158.175 234.514 158.175 234.295C158.175 234.077 158.256 233.889 158.419 233.734C158.584 233.578 158.782 233.5 159.01 233.5C159.239 233.5 159.435 233.578 159.597 233.734C159.763 233.889 159.846 234.077 159.846 234.295C159.846 234.514 159.763 234.701 159.597 234.857C159.435 235.013 159.239 235.091 159.01 235.091ZM164.838 244.159C164.122 244.159 163.506 243.99 162.989 243.652C162.472 243.314 162.074 242.848 161.796 242.255C161.517 241.662 161.378 240.984 161.378 240.222C161.378 239.446 161.521 238.762 161.806 238.168C162.094 237.572 162.495 237.106 163.009 236.771C163.526 236.433 164.129 236.264 164.818 236.264C165.355 236.264 165.839 236.364 166.27 236.562C166.701 236.761 167.054 237.04 167.329 237.398C167.604 237.756 167.775 238.173 167.841 238.651H166.668C166.578 238.303 166.379 237.994 166.071 237.726C165.766 237.454 165.355 237.318 164.838 237.318C164.381 237.318 163.98 237.437 163.635 237.676C163.294 237.911 163.027 238.245 162.835 238.675C162.646 239.103 162.551 239.605 162.551 240.182C162.551 240.772 162.644 241.286 162.83 241.723C163.019 242.161 163.284 242.5 163.625 242.742C163.97 242.984 164.374 243.105 164.838 243.105C165.143 243.105 165.42 243.052 165.669 242.946C165.917 242.84 166.128 242.688 166.3 242.489C166.472 242.29 166.595 242.051 166.668 241.773H167.841C167.775 242.223 167.611 242.629 167.349 242.991C167.09 243.349 166.747 243.634 166.32 243.846C165.896 244.055 165.402 244.159 164.838 244.159ZM179.221 236.364C179.161 235.86 178.919 235.469 178.495 235.19C178.071 234.912 177.551 234.773 176.934 234.773C176.483 234.773 176.089 234.846 175.751 234.991C175.416 235.137 175.154 235.338 174.965 235.593C174.78 235.848 174.687 236.138 174.687 236.463C174.687 236.735 174.752 236.969 174.881 237.164C175.013 237.356 175.182 237.517 175.388 237.646C175.593 237.772 175.809 237.877 176.034 237.96C176.26 238.039 176.467 238.104 176.656 238.153L177.69 238.432C177.955 238.501 178.25 238.598 178.575 238.72C178.903 238.843 179.216 239.01 179.514 239.222C179.816 239.431 180.065 239.7 180.26 240.028C180.456 240.356 180.553 240.759 180.553 241.236C180.553 241.786 180.409 242.283 180.121 242.727C179.836 243.171 179.418 243.524 178.868 243.786C178.321 244.048 177.657 244.179 176.874 244.179C176.145 244.179 175.514 244.061 174.98 243.826C174.45 243.591 174.032 243.263 173.727 242.842C173.426 242.421 173.255 241.932 173.215 241.375H174.488C174.521 241.759 174.651 242.078 174.876 242.33C175.105 242.578 175.393 242.764 175.741 242.886C176.092 243.006 176.47 243.065 176.874 243.065C177.345 243.065 177.768 242.989 178.142 242.837C178.517 242.681 178.813 242.465 179.032 242.19C179.251 241.912 179.36 241.587 179.36 241.216C179.36 240.878 179.266 240.603 179.077 240.391C178.888 240.179 178.639 240.006 178.331 239.874C178.023 239.741 177.69 239.625 177.332 239.526L176.079 239.168C175.284 238.939 174.654 238.612 174.19 238.188C173.726 237.764 173.494 237.209 173.494 236.523C173.494 235.953 173.648 235.455 173.956 235.031C174.268 234.604 174.685 234.272 175.209 234.037C175.736 233.798 176.324 233.679 176.974 233.679C177.63 233.679 178.213 233.797 178.724 234.032C179.234 234.264 179.639 234.582 179.937 234.987C180.239 235.391 180.398 235.85 180.414 236.364H179.221ZM185.524 244.159C184.808 244.159 184.191 243.99 183.674 243.652C183.157 243.314 182.76 242.848 182.481 242.255C182.203 241.662 182.064 240.984 182.064 240.222C182.064 239.446 182.206 238.762 182.491 238.168C182.779 237.572 183.181 237.106 183.694 236.771C184.211 236.433 184.815 236.264 185.504 236.264C186.041 236.264 186.525 236.364 186.956 236.562C187.386 236.761 187.739 237.04 188.015 237.398C188.29 237.756 188.46 238.173 188.527 238.651H187.353C187.264 238.303 187.065 237.994 186.757 237.726C186.452 237.454 186.041 237.318 185.524 237.318C185.066 237.318 184.665 237.437 184.321 237.676C183.979 237.911 183.712 238.245 183.52 238.675C183.331 239.103 183.237 239.605 183.237 240.182C183.237 240.772 183.33 241.286 183.515 241.723C183.704 242.161 183.969 242.5 184.311 242.742C184.655 242.984 185.06 243.105 185.524 243.105C185.829 243.105 186.105 243.052 186.354 242.946C186.603 242.84 186.813 242.688 186.985 242.489C187.158 242.29 187.28 242.051 187.353 241.773H188.527C188.46 242.223 188.296 242.629 188.034 242.991C187.776 243.349 187.433 243.634 187.005 243.846C186.581 244.055 186.087 244.159 185.524 244.159ZM191.415 239.406V244H190.242V233.818H191.415V237.557H191.515C191.694 237.162 191.962 236.849 192.32 236.617C192.681 236.382 193.162 236.264 193.762 236.264C194.282 236.264 194.738 236.369 195.129 236.577C195.52 236.783 195.823 237.099 196.039 237.527C196.257 237.951 196.367 238.491 196.367 239.148V244H195.194V239.227C195.194 238.621 195.036 238.152 194.721 237.82C194.41 237.486 193.977 237.318 193.424 237.318C193.039 237.318 192.694 237.399 192.39 237.562C192.088 237.724 191.849 237.961 191.674 238.273C191.501 238.584 191.415 238.962 191.415 239.406ZM201.616 244.159C200.926 244.159 200.321 243.995 199.801 243.667C199.284 243.339 198.88 242.88 198.588 242.29C198.3 241.7 198.155 241.01 198.155 240.222C198.155 239.426 198.3 238.732 198.588 238.138C198.88 237.545 199.284 237.085 199.801 236.756C200.321 236.428 200.926 236.264 201.616 236.264C202.305 236.264 202.908 236.428 203.425 236.756C203.946 237.085 204.35 237.545 204.638 238.138C204.93 238.732 205.076 239.426 205.076 240.222C205.076 241.01 204.93 241.7 204.638 242.29C204.35 242.88 203.946 243.339 203.425 243.667C202.908 243.995 202.305 244.159 201.616 244.159ZM201.616 243.105C202.139 243.105 202.57 242.971 202.908 242.702C203.246 242.434 203.497 242.081 203.659 241.643C203.821 241.206 203.903 240.732 203.903 240.222C203.903 239.711 203.821 239.236 203.659 238.795C203.497 238.354 203.246 237.998 202.908 237.726C202.57 237.454 202.139 237.318 201.616 237.318C201.092 237.318 200.661 237.454 200.323 237.726C199.985 237.998 199.735 238.354 199.572 238.795C199.41 239.236 199.329 239.711 199.329 240.222C199.329 240.732 199.41 241.206 199.572 241.643C199.735 242.081 199.985 242.434 200.323 242.702C200.661 242.971 201.092 243.105 201.616 243.105ZM209.969 244.159C209.28 244.159 208.675 243.995 208.154 243.667C207.637 243.339 207.233 242.88 206.941 242.29C206.653 241.7 206.509 241.01 206.509 240.222C206.509 239.426 206.653 238.732 206.941 238.138C207.233 237.545 207.637 237.085 208.154 236.756C208.675 236.428 209.28 236.264 209.969 236.264C210.658 236.264 211.262 236.428 211.779 236.756C212.299 237.085 212.703 237.545 212.992 238.138C213.283 238.732 213.429 239.426 213.429 240.222C213.429 241.01 213.283 241.7 212.992 242.29C212.703 242.88 212.299 243.339 211.779 243.667C211.262 243.995 210.658 244.159 209.969 244.159ZM209.969 243.105C210.493 243.105 210.924 242.971 211.262 242.702C211.6 242.434 211.85 242.081 212.012 241.643C212.175 241.206 212.256 240.732 212.256 240.222C212.256 239.711 212.175 239.236 212.012 238.795C211.85 238.354 211.6 237.998 211.262 237.726C210.924 237.454 210.493 237.318 209.969 237.318C209.445 237.318 209.015 237.454 208.676 237.726C208.338 237.998 208.088 238.354 207.926 238.795C207.763 239.236 207.682 239.711 207.682 240.222C207.682 240.732 207.763 241.206 207.926 241.643C208.088 242.081 208.338 242.434 208.676 242.702C209.015 242.971 209.445 243.105 209.969 243.105ZM216.394 233.818V244H215.22V233.818H216.394Z" fill="white"/>
</svg>
