<svg width="472" height="572" viewBox="0 0 472 572" fill="none" xmlns="http://www.w3.org/2000/svg">
<path d="M472 286C472 443.953 366.339 572 236 572C105.661 572 0 443.953 0 286C0 128.047 105.661 0 236 0C366.339 0 472 128.047 472 286Z" fill="#0C0631"/>
<path d="M113.818 282V212.182H124.182V223.091H125.091C126.545 219.364 128.894 216.47 132.136 214.409C135.379 212.318 139.273 211.273 143.818 211.273C148.424 211.273 152.258 212.318 155.318 214.409C158.409 216.47 160.818 219.364 162.545 223.091H163.273C165.061 219.485 167.742 216.621 171.318 214.5C174.894 212.348 179.182 211.273 184.182 211.273C190.424 211.273 195.53 213.227 199.5 217.136C203.47 221.015 205.455 227.061 205.455 235.273V282H194.727V235.273C194.727 230.121 193.318 226.439 190.5 224.227C187.682 222.015 184.364 220.909 180.545 220.909C175.636 220.909 171.833 222.394 169.136 225.364C166.439 228.303 165.091 232.03 165.091 236.545V282H154.182V234.182C154.182 230.212 152.894 227.015 150.318 224.591C147.742 222.136 144.424 220.909 140.364 220.909C137.576 220.909 134.97 221.652 132.545 223.136C130.152 224.621 128.212 226.682 126.727 229.318C125.273 231.924 124.545 234.939 124.545 238.364V282H113.818ZM235.795 240V282H225.068V212.182H235.432V223.091H236.341C237.977 219.545 240.462 216.697 243.795 214.545C247.129 212.364 251.432 211.273 256.705 211.273C261.432 211.273 265.568 212.242 269.114 214.182C272.659 216.091 275.417 219 277.386 222.909C279.356 226.788 280.341 231.697 280.341 237.636V282H269.614V238.364C269.614 232.879 268.189 228.606 265.341 225.545C262.492 222.455 258.583 220.909 253.614 220.909C250.189 220.909 247.129 221.652 244.432 223.136C241.765 224.621 239.659 226.788 238.114 229.636C236.568 232.485 235.795 235.939 235.795 240ZM349.398 227.818L339.761 230.545C339.155 228.939 338.261 227.379 337.08 225.864C335.928 224.318 334.352 223.045 332.352 222.045C330.352 221.045 327.792 220.545 324.67 220.545C320.398 220.545 316.837 221.53 313.989 223.5C311.17 225.439 309.761 227.909 309.761 230.909C309.761 233.576 310.731 235.682 312.67 237.227C314.61 238.773 317.64 240.061 321.761 241.091L332.125 243.636C338.367 245.152 343.019 247.47 346.08 250.591C349.14 253.682 350.67 257.667 350.67 262.545C350.67 266.545 349.519 270.121 347.216 273.273C344.943 276.424 341.761 278.909 337.67 280.727C333.58 282.545 328.822 283.455 323.398 283.455C316.277 283.455 310.383 281.909 305.716 278.818C301.049 275.727 298.095 271.212 296.852 265.273L307.034 262.727C308.004 266.485 309.837 269.303 312.534 271.182C315.261 273.061 318.822 274 323.216 274C328.216 274 332.186 272.939 335.125 270.818C338.095 268.667 339.58 266.091 339.58 263.091C339.58 260.667 338.731 258.636 337.034 257C335.337 255.333 332.731 254.091 329.216 253.273L317.58 250.545C311.186 249.03 306.489 246.682 303.489 243.5C300.519 240.288 299.034 236.273 299.034 231.455C299.034 227.515 300.14 224.03 302.352 221C304.595 217.97 307.64 215.591 311.489 213.864C315.367 212.136 319.761 211.273 324.67 211.273C331.58 211.273 337.004 212.788 340.943 215.818C344.913 218.848 347.731 222.848 349.398 227.818Z" fill="#902525"/>
<path d="M121.761 322.455H123.864L128.807 334.528H128.977L133.92 322.455H136.023V337H134.375V325.949H134.233L129.688 337H128.097L123.551 325.949H123.409V337H121.761V322.455ZM143.901 337.227C142.85 337.227 141.943 336.995 141.181 336.531C140.423 336.062 139.838 335.409 139.426 334.571C139.019 333.728 138.816 332.748 138.816 331.631C138.816 330.513 139.019 329.528 139.426 328.676C139.838 327.819 140.411 327.152 141.145 326.673C141.884 326.19 142.746 325.949 143.73 325.949C144.299 325.949 144.86 326.044 145.414 326.233C145.968 326.422 146.472 326.73 146.926 327.156C147.381 327.578 147.743 328.136 148.013 328.832C148.283 329.528 148.418 330.385 148.418 331.403V332.114H140.009V330.665H146.713C146.713 330.049 146.59 329.5 146.344 329.017C146.103 328.534 145.757 328.153 145.307 327.874C144.862 327.594 144.337 327.455 143.73 327.455C143.063 327.455 142.485 327.62 141.998 327.952C141.515 328.278 141.143 328.705 140.882 329.23C140.622 329.756 140.492 330.319 140.492 330.92V331.886C140.492 332.71 140.634 333.409 140.918 333.982C141.207 334.55 141.607 334.983 142.118 335.281C142.63 335.575 143.224 335.722 143.901 335.722C144.341 335.722 144.739 335.66 145.094 335.537C145.454 335.409 145.764 335.22 146.025 334.969C146.285 334.713 146.486 334.396 146.628 334.017L148.248 334.472C148.077 335.021 147.791 335.504 147.388 335.92C146.986 336.332 146.489 336.654 145.897 336.886C145.305 337.114 144.64 337.227 143.901 337.227ZM155.712 326.091V327.511H150.059V326.091H155.712ZM151.706 323.477H153.382V333.875C153.382 334.348 153.451 334.704 153.588 334.94C153.73 335.172 153.91 335.329 154.128 335.409C154.351 335.485 154.585 335.523 154.831 335.523C155.016 335.523 155.167 335.513 155.286 335.494C155.404 335.471 155.499 335.452 155.57 335.438L155.911 336.943C155.797 336.986 155.639 337.028 155.435 337.071C155.231 337.118 154.973 337.142 154.661 337.142C154.187 337.142 153.723 337.04 153.269 336.837C152.819 336.633 152.445 336.323 152.147 335.906C151.853 335.49 151.706 334.964 151.706 334.33V323.477ZM157.921 337V335.722L164.114 327.767V327.653H158.12V326.091H166.273V327.426L160.25 335.324V335.438H166.472V337H157.921ZM192.065 322.455V337H190.36L182.434 325.58H182.292V337H180.531V322.455H182.235L190.19 333.903H190.332V322.455H192.065ZM202.237 332.54V326.091H203.913V337H202.237V335.153H202.124C201.868 335.707 201.47 336.179 200.93 336.567C200.391 336.95 199.709 337.142 198.885 337.142C198.203 337.142 197.597 336.993 197.067 336.695C196.536 336.392 196.12 335.937 195.817 335.331C195.514 334.72 195.362 333.951 195.362 333.023V326.091H197.038V332.909C197.038 333.705 197.261 334.339 197.706 334.812C198.156 335.286 198.729 335.523 199.425 335.523C199.841 335.523 200.265 335.416 200.696 335.203C201.132 334.99 201.496 334.663 201.79 334.223C202.088 333.783 202.237 333.222 202.237 332.54ZM206.983 337V326.091H208.603V327.795H208.745C208.972 327.213 209.339 326.761 209.846 326.439C210.352 326.112 210.961 325.949 211.671 325.949C212.391 325.949 212.989 326.112 213.468 326.439C213.951 326.761 214.327 327.213 214.597 327.795H214.711C214.99 327.232 215.409 326.785 215.968 326.453C216.526 326.117 217.196 325.949 217.978 325.949C218.953 325.949 219.751 326.254 220.371 326.865C220.991 327.471 221.301 328.416 221.301 329.699V337H219.625V329.699C219.625 328.894 219.405 328.319 218.965 327.973C218.525 327.627 218.006 327.455 217.409 327.455C216.642 327.455 216.048 327.687 215.627 328.151C215.205 328.61 214.995 329.192 214.995 329.898V337H213.29V329.528C213.29 328.908 213.089 328.409 212.686 328.03C212.284 327.646 211.766 327.455 211.131 327.455C210.695 327.455 210.288 327.571 209.909 327.803C209.535 328.035 209.232 328.357 209 328.768C208.773 329.176 208.659 329.647 208.659 330.182V337H206.983ZM228.94 337.227C227.889 337.227 226.982 336.995 226.22 336.531C225.462 336.062 224.877 335.409 224.466 334.571C224.058 333.728 223.855 332.748 223.855 331.631C223.855 330.513 224.058 329.528 224.466 328.676C224.877 327.819 225.45 327.152 226.184 326.673C226.923 326.19 227.785 325.949 228.77 325.949C229.338 325.949 229.899 326.044 230.453 326.233C231.007 326.422 231.511 326.73 231.966 327.156C232.42 327.578 232.782 328.136 233.052 328.832C233.322 329.528 233.457 330.385 233.457 331.403V332.114H225.048V330.665H231.752C231.752 330.049 231.629 329.5 231.383 329.017C231.142 328.534 230.796 328.153 230.346 327.874C229.901 327.594 229.376 327.455 228.77 327.455C228.102 327.455 227.524 327.62 227.037 327.952C226.554 328.278 226.182 328.705 225.922 329.23C225.661 329.756 225.531 330.319 225.531 330.92V331.886C225.531 332.71 225.673 333.409 225.957 333.982C226.246 334.55 226.646 334.983 227.157 335.281C227.669 335.575 228.263 335.722 228.94 335.722C229.38 335.722 229.778 335.66 230.133 335.537C230.493 335.409 230.803 335.22 231.064 334.969C231.324 334.713 231.525 334.396 231.667 334.017L233.287 334.472C233.116 335.021 232.83 335.504 232.427 335.92C232.025 336.332 231.528 336.654 230.936 336.886C230.344 337.114 229.679 337.227 228.94 337.227ZM236.007 337V326.091H237.626V327.739H237.74C237.939 327.199 238.298 326.761 238.819 326.425C239.34 326.089 239.927 325.92 240.581 325.92C240.704 325.92 240.858 325.923 241.042 325.928C241.227 325.932 241.367 325.939 241.461 325.949V327.653C241.404 327.639 241.274 327.618 241.071 327.589C240.872 327.556 240.661 327.54 240.439 327.54C239.908 327.54 239.435 327.651 239.018 327.874C238.606 328.091 238.279 328.394 238.038 328.783C237.801 329.166 237.683 329.604 237.683 330.097V337H236.007ZM243.448 337V326.091H245.124V337H243.448ZM244.3 324.273C243.974 324.273 243.692 324.161 243.455 323.939C243.223 323.716 243.107 323.449 243.107 323.136C243.107 322.824 243.223 322.556 243.455 322.334C243.692 322.111 243.974 322 244.3 322C244.627 322 244.906 322.111 245.138 322.334C245.375 322.556 245.494 322.824 245.494 323.136C245.494 323.449 245.375 323.716 245.138 323.939C244.906 324.161 244.627 324.273 244.3 324.273ZM252.626 337.227C251.603 337.227 250.723 336.986 249.984 336.503C249.245 336.02 248.677 335.355 248.279 334.507C247.882 333.66 247.683 332.691 247.683 331.602C247.683 330.494 247.886 329.517 248.294 328.669C248.706 327.817 249.279 327.152 250.012 326.673C250.751 326.19 251.613 325.949 252.598 325.949C253.365 325.949 254.056 326.091 254.672 326.375C255.287 326.659 255.791 327.057 256.184 327.568C256.577 328.08 256.821 328.676 256.916 329.358H255.24C255.112 328.861 254.828 328.42 254.387 328.037C253.952 327.649 253.365 327.455 252.626 327.455C251.973 327.455 251.4 327.625 250.907 327.966C250.42 328.302 250.038 328.778 249.764 329.393C249.494 330.004 249.359 330.722 249.359 331.545C249.359 332.388 249.492 333.122 249.757 333.747C250.027 334.372 250.405 334.857 250.893 335.203C251.386 335.549 251.963 335.722 252.626 335.722C253.062 335.722 253.457 335.646 253.812 335.494C254.167 335.343 254.468 335.125 254.714 334.841C254.96 334.557 255.136 334.216 255.24 333.818H256.916C256.821 334.462 256.587 335.042 256.213 335.558C255.843 336.07 255.353 336.477 254.743 336.78C254.136 337.078 253.431 337.227 252.626 337.227ZM273.173 326.091C273.088 325.371 272.742 324.812 272.136 324.415C271.53 324.017 270.787 323.818 269.906 323.818C269.262 323.818 268.699 323.922 268.216 324.131C267.737 324.339 267.363 324.625 267.093 324.99C266.828 325.355 266.696 325.769 266.696 326.233C266.696 326.621 266.788 326.955 266.973 327.234C267.162 327.509 267.404 327.739 267.697 327.923C267.991 328.103 268.298 328.252 268.62 328.371C268.942 328.484 269.238 328.577 269.508 328.648L270.985 329.045C271.364 329.145 271.786 329.282 272.25 329.457C272.718 329.633 273.166 329.872 273.592 330.175C274.023 330.473 274.378 330.857 274.657 331.325C274.937 331.794 275.076 332.369 275.076 333.051C275.076 333.837 274.87 334.547 274.458 335.182C274.051 335.816 273.455 336.321 272.669 336.695C271.887 337.069 270.938 337.256 269.821 337.256C268.779 337.256 267.877 337.088 267.115 336.751C266.357 336.415 265.761 335.946 265.325 335.345C264.894 334.744 264.65 334.045 264.593 333.25H266.412C266.459 333.799 266.644 334.254 266.966 334.614C267.292 334.969 267.704 335.234 268.201 335.409C268.703 335.58 269.243 335.665 269.821 335.665C270.493 335.665 271.097 335.556 271.632 335.338C272.167 335.116 272.591 334.808 272.903 334.415C273.216 334.017 273.372 333.553 273.372 333.023C273.372 332.54 273.237 332.147 272.967 331.844C272.697 331.541 272.342 331.295 271.902 331.105C271.461 330.916 270.985 330.75 270.474 330.608L268.684 330.097C267.548 329.77 266.648 329.304 265.985 328.697C265.323 328.091 264.991 327.298 264.991 326.318C264.991 325.504 265.211 324.794 265.652 324.188C266.097 323.577 266.693 323.103 267.441 322.767C268.194 322.426 269.035 322.256 269.963 322.256C270.9 322.256 271.734 322.424 272.463 322.76C273.192 323.091 273.77 323.546 274.196 324.124C274.627 324.701 274.854 325.357 274.877 326.091H273.173ZM282.177 337.227C281.154 337.227 280.273 336.986 279.535 336.503C278.796 336.02 278.228 335.355 277.83 334.507C277.433 333.66 277.234 332.691 277.234 331.602C277.234 330.494 277.437 329.517 277.844 328.669C278.256 327.817 278.829 327.152 279.563 326.673C280.302 326.19 281.164 325.949 282.148 325.949C282.915 325.949 283.607 326.091 284.222 326.375C284.838 326.659 285.342 327.057 285.735 327.568C286.128 328.08 286.372 328.676 286.467 329.358H284.79C284.663 328.861 284.379 328.42 283.938 328.037C283.503 327.649 282.915 327.455 282.177 327.455C281.523 327.455 280.951 327.625 280.458 327.966C279.97 328.302 279.589 328.778 279.315 329.393C279.045 330.004 278.91 330.722 278.91 331.545C278.91 332.388 279.042 333.122 279.308 333.747C279.577 334.372 279.956 334.857 280.444 335.203C280.936 335.549 281.514 335.722 282.177 335.722C282.612 335.722 283.008 335.646 283.363 335.494C283.718 335.343 284.019 335.125 284.265 334.841C284.511 334.557 284.686 334.216 284.79 333.818H286.467C286.372 334.462 286.138 335.042 285.763 335.558C285.394 336.07 284.904 336.477 284.293 336.78C283.687 337.078 282.982 337.227 282.177 337.227ZM290.593 330.438V337H288.917V322.455H290.593V327.795H290.735C290.991 327.232 291.374 326.785 291.886 326.453C292.402 326.117 293.088 325.949 293.945 325.949C294.689 325.949 295.34 326.098 295.898 326.396C296.457 326.69 296.89 327.142 297.198 327.753C297.511 328.359 297.667 329.131 297.667 330.068V337H295.991V330.182C295.991 329.315 295.766 328.645 295.316 328.172C294.871 327.694 294.253 327.455 293.462 327.455C292.913 327.455 292.421 327.571 291.985 327.803C291.554 328.035 291.213 328.373 290.962 328.818C290.716 329.263 290.593 329.803 290.593 330.438ZM305.165 337.227C304.18 337.227 303.316 336.993 302.573 336.524C301.834 336.055 301.257 335.4 300.84 334.557C300.428 333.714 300.222 332.729 300.222 331.602C300.222 330.466 300.428 329.474 300.84 328.626C301.257 327.779 301.834 327.121 302.573 326.652C303.316 326.183 304.18 325.949 305.165 325.949C306.15 325.949 307.012 326.183 307.75 326.652C308.494 327.121 309.071 327.779 309.483 328.626C309.9 329.474 310.108 330.466 310.108 331.602C310.108 332.729 309.9 333.714 309.483 334.557C309.071 335.4 308.494 336.055 307.75 336.524C307.012 336.993 306.15 337.227 305.165 337.227ZM305.165 335.722C305.913 335.722 306.529 335.53 307.012 335.146C307.495 334.763 307.852 334.259 308.084 333.634C308.316 333.009 308.432 332.331 308.432 331.602C308.432 330.873 308.316 330.194 308.084 329.564C307.852 328.934 307.495 328.425 307.012 328.037C306.529 327.649 305.913 327.455 305.165 327.455C304.417 327.455 303.801 327.649 303.319 328.037C302.836 328.425 302.478 328.934 302.246 329.564C302.014 330.194 301.898 330.873 301.898 331.602C301.898 332.331 302.014 333.009 302.246 333.634C302.478 334.259 302.836 334.763 303.319 335.146C303.801 335.53 304.417 335.722 305.165 335.722ZM317.099 337.227C316.114 337.227 315.25 336.993 314.506 336.524C313.768 336.055 313.19 335.4 312.773 334.557C312.362 333.714 312.156 332.729 312.156 331.602C312.156 330.466 312.362 329.474 312.773 328.626C313.19 327.779 313.768 327.121 314.506 326.652C315.25 326.183 316.114 325.949 317.099 325.949C318.084 325.949 318.945 326.183 319.684 326.652C320.427 327.121 321.005 327.779 321.417 328.626C321.834 329.474 322.042 330.466 322.042 331.602C322.042 332.729 321.834 333.714 321.417 334.557C321.005 335.4 320.427 336.055 319.684 336.524C318.945 336.993 318.084 337.227 317.099 337.227ZM317.099 335.722C317.847 335.722 318.462 335.53 318.945 335.146C319.428 334.763 319.786 334.259 320.018 333.634C320.25 333.009 320.366 332.331 320.366 331.602C320.366 330.873 320.25 330.194 320.018 329.564C319.786 328.934 319.428 328.425 318.945 328.037C318.462 327.649 317.847 327.455 317.099 327.455C316.351 327.455 315.735 327.649 315.252 328.037C314.769 328.425 314.412 328.934 314.18 329.564C313.948 330.194 313.832 330.873 313.832 331.602C313.832 332.331 313.948 333.009 314.18 333.634C314.412 334.259 314.769 334.763 315.252 335.146C315.735 335.53 316.351 335.722 317.099 335.722ZM326.277 322.455V337H324.6V322.455H326.277Z" fill="white"/>
</svg>
